{
  "accessors": [
    {
      "bufferView": 1,
      "componentType": 5126,
      "count": 314,
      "max": [
        3.6665747165679932,
        0.94217944145202637,
        3.8352553844451904
      ],
      "min": [
        -3.6665756702423096,
        -3.6665747165679932,
        -3.6665763854980469
      ],
      "type": "VEC3"
    },
    {
      "bufferView": 1,
      "byteOffset": 3768,
      "componentType": 5126,
      "count": 314,
      "max": [
        1,
        1,
        1
      ],
      "min": [
        -1,
        -1,
        -1
      ],
      "type": "VEC3"
    },
    {
      "bufferView": 2,
      "componentType": 5126,
      "count": 314,
      "max": [
        1,
        1,
        1,
        1
      ],
      "min": [
        -1,
        -1,
        -1,
        1
      ],
      "type": "VEC4"
    },
    {
      "bufferView": 0,
      "componentType": 5125,
      "count": 1380,
      "max": [
        313
      ],
      "min": [
        0
      ],
      "type": "SCALAR"
    },
    {
      "bufferView": 1,
      "byteOffset": 7536,
      "componentType": 5126,
      "count": 230,
      "max": [
        3.6665747165679932,
        3.6665747165679932,
        3.6665751934051514
      ],
      "min": [
        -3.6665756702423096,
        0,
        -3.6665763854980469
      ],
      "type": "VEC3"
    },
    {
      "bufferView": 1,
      "byteOffset": 10296,
      "componentType": 5126,
      "count": 230,
      "max": [
        1,
        1,
        1
      ],
      "min": [
        -1,
        -1.8503897303290273e-09,
        -1
      ],
      "type": "VEC3"
    },
    {
      "bufferView": 2,
      "byteOffset": 5024,
      "componentType": 5126,
      "count": 230,
      "max": [
        1,
        0.078690662980079651,
        1,
        1
      ],
      "min": [
        -1,
        -0.078690521419048309,
        -1,
        1
      ],
      "type": "VEC4"
    },
    {
      "bufferView": 0,
      "byteOffset": 5520,
      "componentType": 5125,
      "count": 1140,
      "max": [
        229
      ],
      "min": [
        0
      ],
      "type": "SCALAR"
    },
    {
      "bufferView": 1,
      "byteOffset": 13056,
      "componentType": 5126,
      "count": 540,
      "max": [
        3.765810489654541,
        0.99452215433120728,
        3.9477992057800293
      ],
      "min": [
        -3.7658123970031738,
        -0.99452269077301025,
        -3.7872648239135742
      ],
      "type": "VEC3"
    },
    {
      "bufferView": 1,
      "byteOffset": 19536,
      "componentType": 5126,
      "count": 540,
      "max": [
        1,
        1,
        1
      ],
      "min": [
        -1,
        -1,
        -1
      ],
      "type": "VEC3"
    },
    {
      "bufferView": 2,
      "byteOffset": 8704,
      "componentType": 5126,
      "count": 540,
      "max": [
        1,
        1,
        1,
        1
      ],
      "min": [
        -1,
        -1,
        -1,
        1
      ],
      "type": "VEC4"
    },
    {
      "bufferView": 0,
      "byteOffset": 10080,
      "componentType": 5125,
      "count": 1560,
      "max": [
        539
      ],
      "min": [
        0
      ],
      "type": "SCALAR"
    }
  ],
  "asset": {
    "extras": {
      "author": "jaysalton (https://sketchfab.com/jaysalton)",
      "license": "CC-BY-4.0 (http://creativecommons.org/licenses/by/4.0/)",
      "source": "https://sketchfab.com/models/9f63803d93714eadaa869c23cee0581d",
      "title": "Pokémon Poké Ball"
    },
    "generator": "Sketchfab-3.18.6",
    "version": "2.0"
  },
  "bufferViews": [
    {
      "buffer": 0,
      "byteLength": 16320,
      "byteOffset": 0,
      "name": "floatBufferViews",
      "target": 34963
    },
    {
      "buffer": 0,
      "byteLength": 26016,
      "byteOffset": 16320,
      "byteStride": 12,
      "name": "floatBufferViews",
      "target": 34962
    },
    {
      "buffer": 0,
      "byteLength": 17344,
      "byteOffset": 42336,
      "byteStride": 16,
      "name": "floatBufferViews",
      "target": 34962
    }
  ],
  "buffers": [
    {
      "byteLength": 59680,
      "uri": "scene.bin"
    }
  ],
  "materials": [
    {
      "doubleSided": true,
      "emissiveFactor": [
        0,
        0,
        0
      ],
      "name": "phong2",
      "pbrMetallicRoughness": {
        "baseColorFactor": [
          1,
          1,
          1,
          1
        ],
        "metallicFactor": 0,
        "roughnessFactor": 0.59999999999999998
      }
    },
    {
      "doubleSided": true,
      "emissiveFactor": [
        0,
        0,
        0
      ],
      "name": "phong1",
      "pbrMetallicRoughness": {
        "baseColorFactor": [
          0.87135600000000002,
          0,
          0,
          1
        ],
        "metallicFactor": 0,
        "roughnessFactor": 0.59999999999999998
      }
    },
    {
      "doubleSided": true,
      "emissiveFactor": [
        0,
        0,
        0
      ],
      "name": "lambert1",
      "pbrMetallicRoughness": {
        "baseColorFactor": [
          0.015996,
          0.015996,
          0.0176416,
          1
        ],
        "metallicFactor": 0,
        "roughnessFactor": 0.59999999999999998
      }
    }
  ],
  "meshes": [
    {
      "name": "polySurface11_phong2_0",
      "primitives": [
        {
          "attributes": {
            "NORMAL": 1,
            "POSITION": 0,
            "TANGENT": 2
          },
          "indices": 3,
          "material": 0,
          "mode": 4
        }
      ]
    },
    {
      "name": "polySurface11_phong1_0",
      "primitives": [
        {
          "attributes": {
            "NORMAL": 5,
            "POSITION": 4,
            "TANGENT": 6
          },
          "indices": 7,
          "material": 1,
          "mode": 4
        }
      ]
    },
    {
      "name": "polySurface11_lambert1_0",
      "primitives": [
        {
          "attributes": {
            "NORMAL": 9,
            "POSITION": 8,
            "TANGENT": 10
          },
          "indices": 11,
          "material": 2,
          "mode": 4
        }
      ]
    }
  ],
  "nodes": [
    {
      "children": [
        1
      ],
      "name": "RootNode (gltf orientation matrix)",
      "rotation": [
        -0.70710678118654746,
        -0,
        -0,
        0.70710678118654757
      ]
    },
    {
      "children": [
        2
      ],
      "name": "RootNode (model correction matrix)"
    },
    {
      "children": [
        3
      ],
      "matrix": [
        1,
        0,
        0,
        0,
        0,
        0,
        1,
        0,
        0,
        -1,
        0,
        0,
        0,
        0,
        0,
        1
      ],
      "name": "3e079f263f024334acb2b9d38c153e2b.fbx"
    },
    {
      "children": [
        4
      ],
      "name": "RootNode"
    },
    {
      "children": [
        5,
        6,
        7
      ],
      "name": "polySurface11"
    },
    {
      "mesh": 0,
      "name": "polySurface11_phong2_0"
    },
    {
      "mesh": 1,
      "name": "polySurface11_phong1_0"
    },
    {
      "mesh": 2,
      "name": "polySurface11_lambert1_0"
    }
  ],
  "scene": 0,
  "scenes": [
    {
      "name": "OSG_Scene",
      "nodes": [
        0
      ]
    }
  ]
}

